<?xml version="1.0" encoding="UTF-8"?>
<svg id="Layer_1" data-name="Layer 1" xmlns="http://www.w3.org/2000/svg" viewBox="0 0 345.12 124.6">
  <defs>
    <style>
      .cls-1 {
        fill: #fff;
      }

      .cls-2 {
        fill: #fefeb5;
      }

      .cls-3 {
        font-family: SourceCodePro-Regular, 'Source Code Pro';
        font-size: 36px;
      }

      .cls-4 {
        font-family: SourceCodePro-Medium, 'Source Code Pro';
        font-size: 14px;
      }
    </style>
  </defs>
  <rect class="cls-2" width="343.26" height="124.6"/>
  <g>
    <path d="M85.56,57.45c-2.35-1.57-2.19-1.25-4.54,.93-.51,.47,0,0-3.71,2.17-.11,0-.22,.02-.33,.02-.09,0-.16-.01-.25-.02l-1.71-2.48c-.5,.05-1.01,.08-1.54,.08-10.23,0-7.25-10.83-11.78-17.27-.83-1.17-3.21,.38-4.6,.38-18.49,0-33.48,15.14-33.48,33.82s14.99,33.82,33.48,33.82,33.48-15.14,33.48-33.82c0-5.96-.39-14.55-5-17.63Z"/>
    <path class="cls-2" d="M79.52,61.36c.15-.15,.27-.32,.31-.52,.03-.14,.08-.27,.13-.41,.08-.17,.18-.33,.28-.49,.12-.13,.23-.27,.37-.38,.12-.12,.21-.25,.26-.41,.08-.15,.12-.32,.11-.49,0-.31-.14-.69-.38-.91-.24-.22-.57-.39-.91-.38-.11,.02-.23,.03-.34,.05-.16,.05-.3,.15-.43,.25-.09-.21-.16-.42-.31-.59-.11-.19-.27-.35-.46-.46-.16-.16-.35-.27-.57-.33-.2-.12-.42-.17-.65-.18-.34-.08-.68-.06-1.02,.05-.23,.06-.44,.16-.65,.27-.01,0-.03,.02-.04,.02-.04,.03-.07,.05-.11,.08-.04,.02-.09,.02-.13,.04-.17,.13-.35,.27-.52,.4-.06,.06-.1,.13-.15,.19-.04,.04-.1,.05-.15,.09-.25,.23-.43,.51-.53,.83-.05,.09-.03,.19-.06,.28-.12,.01-.24,.02-.37,.02-1.69,0-3.2-.27-4.55-.75l-2.19-2.54c.69-.87,.73-2.18,.15-3.11,.17-1.39-.62-2.91-2.42-2.91-.23,0-.42,.08-.62,.13-.09,0-.15-.04-.24-.04-.36,0-.67,.08-.96,.19-.25-.08-.51-.17-.82-.17-.06,0-.11,.03-.17,.03l-.15-.18c-1.41-.23-2.85-.37-4.32-.37-14.66,0-26.55,11.89-26.55,26.55s11.89,26.55,26.55,26.55,26.55-11.89,26.55-26.55c0-5.09-1.47-9.83-3.96-13.87Z"/>
    <g>
      <path d="M58.35,27.87c7.27,8.21,6.43,20.82,6.43,20.82,0,0-12.62-.71-19.88-8.92s-6.43-20.82-6.43-20.82c0,0,12.62,.71,19.88,8.92Z"/>
      <path class="cls-2" d="M54.48,30.96c4.3,4.3,4.93,10.64,4.93,10.64,0,0-6.34-.63-10.64-4.93-4.3-4.3-4.93-10.64-4.93-10.64,0,0,6.34,.63,10.64,4.93Z"/>
    </g>
    <path d="M96.83,34.97l-13.33-6.75c-.74-.37-1.64-.08-2.02,.66l-1.3,2.56c-.1,.19-.14,.4-.16,.6-.15,.16-.31,.31-.41,.52l-21.06,41.58c-.56,1.11-.12,2.46,.99,3.02l1.08,.55c1.11,.56,2.46,.12,3.02-.99l20.95-41.36,9.57,4.85c.74,.37,1.64,.08,2.02-.66l1.3-2.56c.37-.74,.08-1.64-.66-2.02Z"/>
    <path class="cls-1" d="M66.48,47.3c-.93,0-1.57,.42-1.98,1-.16,.01-.31-.02-.47,.03-.21,.07-.37,.18-.55,.28-.56,.06-1.13,.12-1.69,.17-.31-.04-.39-.04-.74,0-.45,.06-.84,.14-1.23,.41l-.52,.4c-.25,.23-.43,.51-.53,.83-.22,.51-.31,1.13-.13,1.68,.14,.43,.36,.81,.66,1.14,.23,.25,.51,.43,.83,.53,.08,.04,.17,.03,.25,.06,.11,.05,.22,.09,.32,.14,.02,0,.05,0,.07,0,.36,.19,.73,.32,1.17,.34,.83,.03,1.66-.09,2.46-.31,.07,0,.13,0,.19-.01,.33,.02,.66,.01,1.03-.07,.53-.12,1-.41,1.4-.78,.27-.25,.51-.64,.66-1.03,2-1.11,1.6-4.83-1.23-4.83Z"/>
    <path d="M84.9,57.84c-.01-.36-.12-.73-.38-.98-.24-.24-.57-.43-.91-.4-.6,.05-1.12,.2-1.66,.48-.43,.22-.83,.56-1.15,.94-.7,.87-1.13,2.01-1.04,3.18,.03,.37,.13,.71,.38,.98,.01,.01,.03,.02,.05,.04,.07,.1,.14,.21,.24,.28,.12,.12,.27,.2,.44,.25,.17,.06,.34,.07,.51,.02,.17,0,.33-.06,.48-.16,.09-.07,.17-.14,.26-.22,.02-.02,.02-.06,.04-.08,.05,0,.11,0,.15-.03,.28-.19,.52-.47,.59-.82,.02-.12,.03-.24,.05-.37,0-.23-.06-.45-.17-.66,0,0,0,0,0,0,.03,.07,.05,.13,.08,.2-.04-.1-.06-.21-.08-.32,0-.06,0-.12,0-.19,.02-.07,.03-.14,.05-.22,.03-.06,.06-.11,.09-.17,.04-.04,.08-.09,.12-.13,.06-.04,.11-.08,.18-.11,.19-.07,.38-.14,.57-.17-.05,0-.09,.01-.14,.02,.32-.04,.61-.14,.85-.39,.22-.24,.39-.63,.38-.98Z"/>
    <path d="M62.33,48.98c.56,.08,.97-.08,1.31-.19,1.55-.51,1.7-2.01-.28-2.3-.56-.08-1,.01-1.31,.19-1.62,.16-1.7,2.01,.28,2.3Z"/>
  </g>
  <text class="cls-3" transform="translate(103.73 63.19)"><tspan x="0" y="0">fitnesso</tspan></text>
  <text class="cls-4" transform="translate(114.09 84.14)"><tspan x="0" y="0">juice and food</tspan></text>
</svg>