<?xml version="1.0" encoding="UTF-8"?>
<svg id="Layer_1" data-name="Layer 1" xmlns="http://www.w3.org/2000/svg" viewBox="0 0 338.79 130.69">
  <defs>
    <style>
      .cls-1 {
        fill: #fff;
      }

      .cls-2 {
        font-size: 18px;
      }

      .cls-2, .cls-3 {
        font-family: SourceCodePro-Regular, 'Source Code Pro';
      }

      .cls-3 {
        font-size: 48px;
      }
    </style>
  </defs>
  <g>
    <path d="M90.4,57.22c-2.82-1.88-2.62-1.5-5.44,1.12-.61,.57,0,0-4.44,2.6-.14,0-.26,.02-.4,.02-.1,0-.2-.02-.3-.02l-2.05-2.97c-.6,.06-1.21,.1-1.85,.1-12.25,0-8.68-12.98-14.11-20.69-.99-1.41-3.85,.46-5.51,.46-22.15,0-40.11,18.14-40.11,40.51s17.96,40.51,40.11,40.51,40.11-18.14,40.11-40.51c0-7.14-.47-17.43-5.99-21.13Z"/>
    <path class="cls-1" d="M83.17,61.91c.17-.18,.32-.38,.38-.63,.04-.17,.1-.33,.15-.49,.1-.2,.21-.4,.34-.58,.14-.16,.28-.32,.44-.46,.15-.14,.26-.3,.32-.49,.1-.18,.14-.38,.13-.59,0-.38-.17-.83-.45-1.09-.29-.27-.68-.47-1.09-.45-.14,.02-.27,.04-.41,.05-.2,.06-.36,.18-.51,.3-.1-.25-.19-.51-.37-.71-.14-.23-.32-.41-.55-.55-.19-.19-.42-.32-.68-.39-.24-.14-.5-.21-.78-.21-.41-.09-.82-.07-1.23,.05-.27,.07-.53,.2-.78,.32-.02,0-.03,.02-.05,.03-.04,.03-.08,.07-.13,.1-.05,.03-.11,.02-.16,.05-.21,.16-.41,.32-.62,.48-.07,.07-.11,.15-.18,.23-.05,.05-.13,.06-.17,.11-.3,.28-.51,.61-.64,.99-.05,.1-.04,.23-.07,.33-.15,.01-.29,.03-.45,.03-2.02,0-3.84-.32-5.45-.9l-2.63-3.04c.83-1.04,.87-2.61,.18-3.73,.2-1.66-.74-3.49-2.9-3.49-.28,0-.5,.09-.74,.15-.1,0-.18-.05-.29-.05-.44,0-.81,.1-1.15,.23-.3-.1-.61-.2-.98-.2-.08,0-.13,.04-.2,.04l-.19-.21c-1.69-.28-3.41-.44-5.18-.44-17.56,0-31.8,14.24-31.8,31.8s14.24,31.8,31.8,31.8,31.8-14.24,31.8-31.8c0-6.1-1.76-11.78-4.74-16.61Z"/>
    <g>
      <path d="M57.81,21.78c8.7,9.84,7.7,24.94,7.7,24.94,0,0-15.11-.85-23.82-10.69s-7.7-24.94-7.7-24.94c0,0,15.11,.85,23.82,10.69Z"/>
      <path class="cls-1" d="M53.17,25.49c5.15,5.15,5.91,12.75,5.91,12.75,0,0-7.6-.76-12.75-5.91-5.15-5.15-5.91-12.75-5.91-12.75,0,0,7.6,.76,12.75,5.91Z"/>
    </g>
    <path d="M103.91,30.29l-15.97-8.09c-.89-.45-1.97-.09-2.41,.79l-1.55,3.07c-.12,.23-.17,.47-.19,.72-.18,.19-.37,.38-.49,.62l-25.23,49.81c-.67,1.33-.14,2.95,1.19,3.62l1.29,.65c1.33,.67,2.95,.14,3.62-1.19l25.09-49.55,11.47,5.81c.89,.45,1.97,.09,2.41-.79l1.55-3.07c.45-.89,.09-1.97-.79-2.41Z"/>
    <path class="cls-1" d="M67.55,45.06c-1.11,0-1.88,.51-2.37,1.2-.19,.01-.38-.02-.56,.04-.25,.08-.44,.22-.66,.34-.67,.07-1.35,.14-2.03,.2-.37-.05-.46-.05-.89,0-.54,.07-1,.16-1.47,.5l-.63,.48c-.3,.28-.51,.61-.64,.99-.26,.61-.37,1.36-.16,2.01,.16,.51,.43,.97,.79,1.36,.28,.3,.61,.51,.99,.64,.09,.05,.21,.03,.3,.07,.13,.05,.26,.11,.39,.16,.03,0,.06,0,.09,.01,.43,.23,.88,.38,1.4,.4,1,.03,1.99-.1,2.95-.37,.08,0,.15,0,.23-.01,.4,.03,.79,.01,1.24-.09,.64-.15,1.2-.5,1.68-.94,.32-.3,.61-.77,.8-1.23,2.39-1.32,1.92-5.79-1.47-5.79Z"/>
    <path d="M89.62,57.69c-.02-.43-.15-.87-.45-1.17-.29-.28-.69-.52-1.09-.48-.72,.06-1.34,.24-1.99,.58-.51,.27-1,.67-1.37,1.13-.84,1.04-1.35,2.41-1.25,3.8,.03,.44,.15,.85,.45,1.17,.02,.02,.04,.03,.06,.04,.08,.13,.17,.25,.29,.34,.15,.15,.32,.24,.53,.3,.21,.07,.41,.08,.62,.03,.21-.01,.4-.08,.57-.2,.1-.09,.21-.17,.31-.26,.03-.03,.03-.07,.05-.1,.06-.01,.13,0,.18-.04,.33-.23,.62-.57,.71-.99,.02-.15,.04-.29,.06-.44,0-.28-.07-.54-.2-.79,0,0,0,0,0,0,.03,.08,.06,.16,.1,.24-.05-.12-.07-.25-.1-.38,0-.07,0-.15,0-.22,.02-.09,.04-.17,.07-.26,.03-.07,.07-.13,.11-.2,.05-.05,.1-.1,.14-.15,.07-.04,.14-.09,.21-.13,.22-.08,.45-.17,.69-.2-.06,0-.11,.02-.17,.02,.39-.04,.74-.16,1.02-.47,.27-.29,.47-.76,.45-1.17Z"/>
    <path d="M62.57,47.07c.67,.1,1.16-.1,1.57-.23,1.86-.61,2.03-2.41-.34-2.75-.67-.1-1.2,.01-1.57,.23-1.95,.19-2.03,2.41,.34,2.75Z"/>
  </g>
  <text class="cls-3" transform="translate(99.02 68.69)"><tspan x="0" y="0">fitnesso</tspan></text>
  <text class="cls-2" transform="translate(112.17 97.11)"><tspan x="0" y="0">juice and food</tspan></text>
</svg>