<?xml version="1.0" encoding="UTF-8"?>
<svg id="Layer_1" data-name="Layer 1" xmlns="http://www.w3.org/2000/svg" viewBox="0 0 111.07 117.88">
  <defs>
    <style>
      .cls-1 {
        fill: #fefeb5;
      }
    </style>
  </defs>
  <rect class="cls-1" x="0" y="0" width="111.07" height="115.04" rx="51.87" ry="51.87"/>
  <g>
    <path d="M81.8,50.73c-2.43-1.62-2.25-1.29-4.68,.96-.53,.49,0,0-3.82,2.24-.12,0-.22,.02-.34,.02-.09,0-.17-.01-.26-.02l-1.76-2.56c-.51,.05-1.04,.08-1.59,.08-10.54,0-7.47-11.16-12.14-17.79-.85-1.21-3.31,.39-4.74,.39-19.05,0-34.5,15.6-34.5,34.84s15.44,34.84,34.5,34.84,34.5-15.6,34.5-34.84c0-6.14-.4-14.99-5.16-18.17Z"/>
    <path class="cls-1" d="M75.57,54.77c.15-.15,.28-.33,.32-.54,.03-.14,.08-.28,.13-.42,.08-.17,.18-.34,.29-.5,.12-.14,.24-.27,.38-.39,.13-.12,.22-.26,.27-.43,.08-.16,.12-.33,.11-.51,0-.32-.14-.71-.39-.93-.25-.23-.58-.4-.93-.39-.12,.02-.23,.03-.35,.05-.17,.05-.31,.15-.44,.26-.09-.21-.16-.44-.32-.61-.12-.2-.28-.36-.47-.47-.16-.16-.36-.28-.58-.34-.21-.12-.43-.18-.67-.18-.35-.08-.7-.06-1.05,.05-.23,.06-.45,.17-.67,.28-.01,0-.03,.02-.04,.02-.04,.03-.07,.06-.11,.08-.04,.02-.09,.02-.14,.04-.18,.14-.36,.28-.53,.41-.06,.06-.1,.13-.15,.2-.04,.04-.11,.05-.15,.1-.26,.24-.44,.52-.55,.85-.05,.09-.03,.19-.06,.29-.13,.01-.25,.02-.39,.02-1.74,0-3.3-.28-4.68-.77l-2.26-2.61c.71-.89,.75-2.24,.15-3.21,.17-1.43-.63-3-2.49-3-.24,0-.43,.08-.64,.13-.09,0-.16-.04-.25-.04-.38,0-.69,.09-.99,.2-.26-.09-.52-.17-.85-.17-.07,0-.11,.03-.17,.04l-.16-.18c-1.45-.24-2.94-.38-4.45-.38-15.11,0-27.35,12.25-27.35,27.35s12.25,27.35,27.35,27.35,27.35-12.25,27.35-27.35c0-5.25-1.51-10.13-4.08-14.29Z"/>
    <g>
      <path d="M53.76,20.25c7.49,8.46,6.62,21.45,6.62,21.45,0,0-13-.73-20.49-9.19-7.49-8.46-6.62-21.45-6.62-21.45,0,0,13,.73,20.49,9.19Z"/>
      <path class="cls-1" d="M49.77,23.44c4.43,4.43,5.08,10.97,5.08,10.97,0,0-6.54-.65-10.97-5.08-4.43-4.43-5.08-10.97-5.08-10.97,0,0,6.54,.65,10.97,5.08Z"/>
    </g>
    <path d="M93.41,27.57l-13.73-6.95c-.76-.39-1.69-.08-2.08,.68l-1.34,2.64c-.1,.2-.15,.41-.16,.62-.16,.16-.32,.32-.42,.54l-21.7,42.84c-.58,1.14-.12,2.54,1.02,3.11l1.11,.56c1.14,.58,2.54,.12,3.11-1.02l21.58-42.61,9.86,5c.76,.39,1.69,.08,2.08-.68l1.34-2.64c.39-.76,.08-1.69-.68-2.08Z"/>
    <path class="cls-1" d="M62.13,40.28c-.96,0-1.62,.43-2.04,1.03-.16,.01-.32-.02-.48,.03-.21,.07-.38,.19-.56,.29-.58,.06-1.16,.12-1.74,.17-.32-.04-.4-.04-.76,0-.46,.06-.86,.14-1.27,.43l-.54,.42c-.26,.24-.44,.53-.55,.86-.22,.53-.32,1.17-.13,1.73,.14,.44,.37,.83,.68,1.17,.24,.26,.53,.44,.86,.55,.08,.04,.18,.03,.26,.06,.11,.05,.22,.09,.33,.14,.03,0,.05,0,.08,.01,.37,.2,.76,.33,1.2,.35,.86,.03,1.71-.09,2.54-.31,.07,0,.13,0,.2-.01,.34,.02,.68,.01,1.07-.08,.55-.13,1.04-.43,1.44-.81,.28-.26,.52-.66,.68-1.06,2.06-1.14,1.65-4.98-1.27-4.98Z"/>
    <path d="M81.12,51.13c-.02-.37-.13-.75-.39-1.01-.25-.24-.59-.45-.94-.42-.62,.05-1.15,.21-1.71,.5-.44,.23-.86,.57-1.18,.97-.72,.9-1.16,2.07-1.07,3.27,.03,.38,.13,.73,.39,1.01,.01,.02,.04,.03,.05,.04,.07,.11,.14,.22,.25,.29,.13,.13,.28,.21,.45,.25,.18,.06,.35,.07,.53,.03,.18,0,.34-.06,.49-.17,.09-.07,.18-.15,.27-.22,.02-.02,.02-.06,.04-.08,.05-.01,.11,0,.15-.03,.28-.2,.53-.49,.61-.85,.02-.13,.03-.25,.05-.38,0-.24-.06-.46-.17-.68,0,0,0,0,0,0,.03,.07,.05,.14,.08,.21-.04-.1-.06-.22-.08-.33,0-.06,0-.13,0-.19,.02-.08,.03-.15,.06-.22,.03-.06,.06-.12,.09-.17,.04-.05,.08-.09,.12-.13,.06-.04,.12-.08,.18-.11,.19-.07,.39-.14,.59-.17-.05,0-.1,.01-.14,.02,.33-.04,.63-.14,.88-.4,.23-.25,.4-.65,.39-1.01Z"/>
    <path d="M57.86,42c.58,.08,1-.08,1.35-.2,1.6-.52,1.75-2.07-.29-2.36-.58-.08-1.03,.01-1.35,.2-1.67,.16-1.75,2.07,.29,2.36Z"/>
  </g>
</svg>